<?xml version="1.0" encoding="utf-8"?>
<!-- Generator: Adobe Illustrator 21.1.0, SVG Export Plug-In . SVG Version: 6.00 Build 0)  -->
<svg version="1.1" id="Layer_1" xmlns="http://www.w3.org/2000/svg" xmlns:xlink="http://www.w3.org/1999/xlink" x="0px" y="0px"
	 viewBox="0 0 404 149.3" style="enable-background:new 0 0 404 149.3;" xml:space="preserve">
<style type="text/css">
	.st0{fill:#003233;}
</style>
<path id="Mouth_1_" class="st0" d="M226.4,120c0,0-0.3,0-0.9-0.1c-0.6-0.1-1.4-0.2-2.4-0.4c-0.3,0-0.5-0.1-0.8-0.1s-0.6-0.1-0.9-0.1
	c-0.6-0.1-1.3-0.2-2-0.3c-1.4-0.2-3.1-0.4-4.8-0.6c-0.9-0.1-1.8-0.2-2.8-0.3c-1-0.1-2-0.2-3-0.2s-2.1-0.1-3.1-0.2
	c-0.5,0-1.1-0.1-1.6-0.1h-1.7c-1.1,0-2.3-0.1-3.4-0.1h-7.1c-1.2,0-2.4,0-3.6,0.1c-1.2,0.1-2.4,0.1-3.6,0.2c-1.2,0.1-2.4,0.2-3.5,0.3
	c-0.6,0-1.2,0.1-1.7,0.1c-0.6,0.1-1.2,0.1-1.7,0.2c-1.1,0.1-2.3,0.3-3.4,0.4c-1.1,0.2-2.2,0.3-3.3,0.5c-0.5,0.1-1.1,0.2-1.6,0.2
	l-1.5,0.3c-1,0.2-2,0.4-2.9,0.5c-0.9,0.2-1.9,0.4-2.7,0.6c-0.9,0.2-1.7,0.4-2.5,0.5c-0.8,0.2-1.5,0.4-2.2,0.6s-1.4,0.4-2,0.5
	c-0.6,0.2-1.2,0.3-1.7,0.5c-2,0.6-3.1,0.9-3.1,0.9c-0.5,0.1-1-0.1-1.1-0.6c-0.1-0.4,0.1-0.9,0.5-1.1c0,0,1.1-0.5,3.1-1.3
	c0.5-0.2,1-0.4,1.7-0.6c0.6-0.2,1.3-0.4,2-0.7c0.7-0.2,1.5-0.5,2.2-0.8c0.8-0.2,1.6-0.5,2.5-0.7s1.8-0.5,2.8-0.8c1-0.2,2-0.5,3-0.7
	c0.5-0.1,1-0.2,1.6-0.4c0.5-0.1,1.1-0.2,1.6-0.3l3.3-0.6c1.1-0.2,2.3-0.3,3.4-0.5l1.8-0.3c0.6-0.1,1.2-0.1,1.8-0.2
	c1.2-0.1,2.4-0.3,3.6-0.4c1.2-0.1,2.4-0.2,3.6-0.2c1.2-0.1,2.4-0.1,3.7-0.2c1.2,0,2.4-0.1,3.6-0.1h3.6c1.2,0,2.3,0.1,3.5,0.1
	c0.6,0,1.1,0.1,1.7,0.1c0.6,0,1.1,0.1,1.7,0.1c1.1,0.1,2.2,0.2,3.2,0.3c1,0.1,2.1,0.3,3,0.4c1,0.1,1.9,0.2,2.8,0.4
	c1.8,0.3,3.5,0.6,4.9,0.9c0.7,0.2,1.4,0.3,2.1,0.5c0.3,0.1,0.6,0.1,0.9,0.2c0.3,0.1,0.5,0.2,0.8,0.2c1,0.3,1.8,0.5,2.4,0.7
	c0.5,0.2,0.8,0.2,0.8,0.2c0.6,0.2,1,0.8,0.8,1.4C227.5,119.8,227,120.1,226.4,120L226.4,120z"/>
<path id="Left_Eyebrow_1_" class="st0" d="M209.4,65.8c0,0,0.1,0.1,0.4,0.3c0.2,0.2,0.6,0.5,1.1,0.8c0.5,0.3,1,0.7,1.7,1.2
	c0.3,0.2,0.7,0.5,1,0.7c0.4,0.3,0.8,0.5,1.2,0.8s0.8,0.5,1.3,0.8c0.2,0.1,0.4,0.3,0.7,0.4c0.2,0.1,0.5,0.3,0.7,0.4l1.5,0.9l1.5,0.9
	c1,0.7,2.2,1.2,3.3,1.9c0.6,0.3,1.1,0.6,1.7,0.9l0.9,0.5c0.3,0.2,0.6,0.3,0.9,0.4c0.6,0.3,1.2,0.6,1.7,0.9c0.6,0.3,1.2,0.6,1.7,0.8
	c1.1,0.6,2.3,1.1,3.4,1.6c0.6,0.2,1.1,0.5,1.6,0.7s1.1,0.5,1.6,0.7c1,0.4,2,0.8,2.9,1.1c0.5,0.2,0.9,0.3,1.3,0.4
	c0.4,0.2,0.8,0.2,1.2,0.4c0.8,0.2,1.4,0.4,2,0.5c0.6,0.1,1,0.2,1.3,0.3s0.5,0.1,0.5,0.1c0.3,0.1,0.5,0.4,0.4,0.6s-0.2,0.4-0.5,0.4
	c0,0-0.2,0-0.5,0.1c-0.3,0-0.8,0.1-1.4,0.1c-0.6,0.1-1.3,0-2.2,0c-0.4,0-0.9,0-1.4-0.1c-0.5,0-1-0.1-1.5-0.2c-1-0.1-2.1-0.4-3.3-0.6
	c-0.6-0.1-1.2-0.3-1.8-0.5s-1.2-0.3-1.8-0.6c-0.6-0.2-1.2-0.4-1.8-0.7c-0.6-0.2-1.2-0.5-1.9-0.8c-0.6-0.3-1.2-0.5-1.9-0.8L225,80
	c-0.6-0.3-1.2-0.6-1.8-1c-0.6-0.3-1.2-0.7-1.8-1c-0.6-0.4-1.1-0.7-1.7-1.1c-0.6-0.4-1.1-0.7-1.6-1.1s-1-0.7-1.5-1.1
	s-0.9-0.8-1.4-1.1c-0.9-0.7-1.7-1.5-2.4-2.2c-0.7-0.7-1.4-1.4-1.9-2.1c-0.6-0.7-1-1.3-1.4-1.7c-0.3-0.5-0.6-0.9-0.7-1.2
	c-0.2-0.3-0.3-0.4-0.3-0.4v-0.1c-0.1-0.3-0.1-0.6,0.2-0.7C209,65.7,209.2,65.7,209.4,65.8z"/>
<path class="st0" d="M152.6,72.3c0,0,0,0.1-0.1,0.3c0,0.1,0,0.2-0.1,0.3c0,0.1-0.1,0.3-0.1,0.5c-0.1,0.2-0.1,0.4-0.2,0.6
	s-0.2,0.5-0.3,0.7c-0.2,0.5-0.5,1-0.8,1.6c-0.2,0.3-0.3,0.6-0.5,0.9l-0.6,0.9c-0.4,0.6-0.9,1.2-1.4,1.8s-1.1,1.2-1.6,1.8
	c-0.6,0.6-1.2,1.2-1.8,1.7c-0.6,0.6-1.3,1.1-1.9,1.6c-0.7,0.5-1.3,1-1.9,1.4c-0.6,0.4-1.3,0.9-1.9,1.2c-0.6,0.4-1.2,0.7-1.8,1
	c-0.6,0.3-1.1,0.5-1.6,0.7c-0.2,0.1-0.5,0.2-0.7,0.3c-0.2,0.1-0.4,0.1-0.6,0.2c-0.4,0.1-0.6,0.2-0.8,0.2c-0.2,0-0.3,0.1-0.3,0.1
	c-0.3,0.1-0.6-0.1-0.7-0.4c-0.1-0.2,0-0.5,0.2-0.6l0.1-0.1l0.2-0.2c0.2-0.1,0.4-0.3,0.7-0.5c0.1-0.1,0.3-0.2,0.5-0.3
	c0.2-0.1,0.3-0.3,0.5-0.4c0.4-0.3,0.8-0.6,1.3-1s0.9-0.8,1.5-1.2c0.5-0.4,1.1-0.9,1.6-1.4c0.6-0.5,1.1-1,1.7-1.5
	c0.6-0.5,1.1-1,1.7-1.6c0.6-0.5,1.1-1.1,1.7-1.6l1.6-1.6c0.3-0.3,0.5-0.5,0.7-0.8l0.7-0.7l1.3-1.3c0.4-0.4,0.7-0.8,1-1.2
	c0.2-0.2,0.3-0.4,0.4-0.5c0.1-0.2,0.3-0.3,0.4-0.4c0.1-0.1,0.2-0.3,0.3-0.4c0.1-0.1,0.2-0.2,0.2-0.3c0.1-0.2,0.2-0.2,0.2-0.2
	l0.1-0.1c0.2-0.2,0.6-0.3,0.8-0.1C152.6,71.9,152.7,72.1,152.6,72.3L152.6,72.3z"/>
<path id="Head_1_" class="st0" d="M148.8,60.9v7c0,2.4-0.1,4.8-0.1,7c-0.2,4.8-0.4,9.4-0.7,14.2c-0.2,2.4-0.4,4.8-0.6,7
	c-0.2,2.4-0.5,4.8-0.9,7.1l-0.6,3.6c-0.2,1.2-0.5,2.4-0.8,3.6c-0.3,1.2-0.6,2.4-1,3.6c-0.4,1.2-0.9,2.4-1.5,3.7l0.2-0.4
	c-0.3-0.1-0.1,0-0.2,0v0.3c0,0.1,0,0.2-0.1,0.4v0.7c0,0.5,0.1,1.1,0.3,1.6c0.4,1.1,1.1,2.3,2.1,3.4c1.8,2.2,4.3,4.1,6.8,5.7
	c5.2,3.4,11.2,5.7,17.1,7.6c3,1,6,1.8,9.2,2.4c1.6,0.3,3.1,0.6,4.7,0.9c1.6,0.3,3.2,0.5,4.7,0.7c3.2,0.4,6.2,0.6,9.4,0.7h5.8
	l1.2-0.1c0.8,0,1.6-0.1,2.4-0.1c6.3-0.5,12.6-1.5,18.6-3.2c6-1.7,11.9-4.1,17.1-7.3c5.2-3.2,9.9-7.2,13.4-12.1
	c1.7-2.5,3.2-5,4.3-7.8c1.1-2.8,1.8-5.7,2.1-8.7c0.2-1.5,0.2-3,0.2-4.6c0-1.5-0.1-3.1-0.3-4.6c-0.2-1.5-0.4-3.1-0.7-4.6l-0.3-1.2
	l-0.3-1.1c-0.2-0.8-0.4-1.5-0.6-2.3c-1.7-6-4.3-11.8-7.9-16.7c-3.6-5-8.2-9.2-13.7-12.4c-5.3-3.1-11.4-5.1-17.6-6
	c-3.2-0.5-6.2-0.7-9.5-0.7s-6.5,0-9.8,0.1c-6.5,0.2-13,0.7-19.4,1.6c-6.4,0.9-12.9,2.2-19.1,3.9s-12.5,3.9-18.4,6.4l-1.1-2.4
	c6-2.8,12.3-5,18.6-6.9c6.3-1.9,12.9-3.4,19.4-4.4c6.5-1,13.2-1.7,19.8-2.1c3.3-0.2,6.6-0.3,9.9-0.4c3.4-0.1,6.7,0.1,10.1,0.5
	c6.7,0.9,13.4,2.9,19.3,6.2c5.9,3.3,11.3,7.9,15.3,13.4c4.2,5.4,7.1,11.7,9.1,18.2c0.2,0.8,0.5,1.6,0.7,2.5l0.3,1.3l0.3,1.2
	c0.4,1.7,0.7,3.4,0.9,5c0.2,1.7,0.4,3.5,0.4,5.1c0,1.7,0,3.5-0.2,5.1c-0.3,3.5-1.1,6.9-2.3,10.2c-1.2,3.3-2.8,6.4-4.8,9.3
	c-4,5.7-9.2,10.4-15,14.1c-5.8,3.7-12.2,6.3-18.6,8.2c-6.5,1.9-13.2,3.1-19.9,3.7c-0.9,0.1-1.7,0.1-2.6,0.2l-1.3,0.1l-1.2,0.1
	c-1.7,0.1-3.4,0.1-5.1,0c-3.4-0.1-6.7-0.4-10.1-0.8c-6.7-0.9-13.4-2.4-19.7-4.6c-3.2-1.1-6.3-2.4-9.4-3.9c-3.1-1.5-6-3.2-8.9-5
	c-1.4-1-2.9-2.1-4.2-3.2c-1.3-1.2-2.6-2.5-3.8-3.9c-1.2-1.5-2.2-3.2-2.9-5.1c-0.3-1-0.5-2.1-0.5-3.3c0-0.6,0-1.2,0.1-1.7
	c0.1-0.3,0.1-0.6,0.2-0.9l0.1-0.4l0.1-0.2v-0.1c-0.1-0.1,0.2,0-0.1-0.2l0.2-0.3c0.5-0.8,0.9-1.8,1.3-2.8c0.4-1,0.8-2.1,1.1-3.2
	l0.9-3.3c0.3-1.1,0.5-2.2,0.8-3.4c0.5-2.3,0.9-4.6,1.3-6.8c0.4-2.3,0.7-4.6,1.1-6.9c0.6-4.7,1.2-9.2,1.6-13.9c0.2-2.3,0.4-4.7,0.6-7
	c0.2-2.4,0.4-4.7,0.5-7L148.8,60.9L148.8,60.9z"/>
<path id="Left_Eye_1_" class="st0" d="M151.8,91.8c0.5,1.1-0.7,3.3-2.6,4.2c-1.9,1-3.9,0.8-4.4-0.2c-0.5-1.1,0.7-3.8,2.6-4.8
	C149.2,90.1,151.3,90.7,151.8,91.8z"/>
<path id="Right_Eye_1_" class="st0" d="M224,89.3c0,1.9-2.2,2.9-4.1,2.9c-1.9,0-3.9-2.1-3.9-4c0-1.9,2.1-2.5,4-2.5
	S224,87.5,224,89.3z"/>
<path id="LeftAnt_1_" class="st0" d="M153.3,55.9c-0.8-0.6-1.6-1.1-2.5-1.7l-2.5-1.9l-2.4-1.9l-2.3-1.9c-0.8-0.6-1.5-1.3-2.3-2
	s-1.5-1.3-2.3-2c-0.8-0.7-1.5-1.3-2.2-2s-1.5-1.4-2.2-2l-2.2-2.1l-2.2-2.1l-2.1-2.1l-2.1-2.1c-0.7-0.7-1.4-1.4-2.1-2.2
	c-0.7-0.7-1.4-1.5-2.1-2.2c-0.7-0.7-1.4-1.5-2.1-2.2l-1-1.1l-1-1.2l3,0.9c-2.8,0.9-5.6,1.8-8.4,2.9c-2.8,1-5.5,2.1-8.3,3.2
	c-1.4,0.5-2.8,1.1-4.2,1.7l-4.1,1.7l-4,1.8l-4.1,1.8l-4.1,2l-4,2l-4,2c-1.3,0.7-2.7,1.4-4,2.1c-2.6,1.4-5.2,2.9-7.8,4.3
	c-1.3,0.7-2.6,1.5-3.9,2.3c-1.3,0.8-2.6,1.5-3.9,2.3l-1.9,1.2l-1.9,1.2l-1.9,1.2c-0.6,0.4-1.3,0.8-1.9,1.2c-1.3,0.8-2.5,1.6-3.7,2.5
	l-1.8,1.2l-1,0.7L41.7,64c-1.2,0.9-2.4,1.7-3.6,2.6l-3.6,2.7L31.1,72l-3.5,2.9l-3.4,3l-3.3,3c-1.1,1-2.1,2.1-3.2,3.1
	c-1.1,1.1-2.1,2.2-3.1,3.2l-3,3.3c-0.9,1.2-1.9,2.4-2.8,3.5l-2.7,3.6c-0.9,1.2-1.7,2.5-2.5,3.7c-0.3,0.5-0.9,0.6-1.4,0.3
	c-0.4-0.3-0.6-0.9-0.3-1.4c0.8-1.2,1.6-2.5,2.5-3.8c0.9-1.2,1.8-2.5,2.7-3.7c1-1.2,1.9-2.4,2.8-3.6c1-1.2,2-2.3,3-3.5
	c1-1.1,2-2.3,3.1-3.4s2.1-2.2,3.2-3.2c1.1-1.1,2.2-2.1,3.3-3.2l3.4-3.1l3.5-3l3.5-2.9c1.2-1,2.4-1.9,3.6-2.8l3.6-2.7l0.9-0.7
	l0.9-0.7l1.9-1.3c1.2-0.9,2.5-1.7,3.7-2.6c0.6-0.4,1.2-0.9,1.9-1.3l1.9-1.3l1.9-1.3l1.9-1.2l3.9-2.4c1.3-0.8,2.6-1.6,3.9-2.3
	c2.6-1.5,5.1-3,7.8-4.5c1.3-0.7,2.7-1.5,4-2.2l4-2.1l4.1-2.1l4.1-2l4.1-2l4.1-1.9l4.2-1.8l4.2-1.8c2.8-1.2,5.5-2.3,8.4-3.4
	c2.8-1.1,5.6-2.1,8.5-3.1c0.7-0.2,1.4,0,1.9,0.5v0.1l0.9,1.1l1,1.1c0.7,0.7,1.3,1.4,2,2.2c0.7,0.7,1.3,1.4,2,2.1l2.1,2.1l2.1,2.1
	l2,2.4l2.1,2.1l2.1,2c0.7,0.7,1.4,1.3,2.2,2c0.7,0.7,1.5,1.3,2.2,2c0.7,0.7,1.5,1.3,2.2,2c0.7,0.6,1.5,1.3,2.2,1.9l2.3,1.9l2.3,1.8
	l2.3,1.7c0.8,0.6,1.6,1.1,2.4,1.7c1,0.7,1.2,2.1,0.5,3C155.7,56.4,154.3,56.6,153.3,55.9L153.3,55.9z"/>
<path id="RightAnt_1_" class="st0" d="M230.6,53.2c0,0,0-0.1,0.1-0.2c0.1-0.2,0.2-0.3,0.3-0.6l0.9-1.8c0.8-1.5,2-3.6,3.5-6.2
	s3.5-5.8,5.6-9.4c2.2-3.6,4.8-7.6,7.6-12c2.9-4.4,6-9.1,9.7-13.9c0.9-1.2,1.9-2.4,3-3.7c0.5-0.6,1.1-1.2,1.7-1.8
	c0.6-0.6,1.2-1.2,2.1-1.9c0.2-0.2,0.5-0.3,0.8-0.5s0.6-0.3,1.1-0.5c0.1,0,0.3-0.1,0.4-0.1c0.1,0,0.3,0,0.5-0.1h0.6
	c0.2,0,0.4,0.1,0.7,0.1c0.5,0.1,0.9,0.4,1.3,0.7c0.1,0.1,0.2,0.2,0.2,0.1l0.1,0.1l0.1,0.1l1.7,1.7c1.1,1.1,2.3,2.2,3.4,3.4
	c9.2,8.9,19.7,17.8,30.5,26.3s22,16.5,32.8,23.6c10.8,7.1,21.1,13.3,30.2,18c4.6,2.4,8.8,4.5,12.6,6.1c3.8,1.7,7.1,3.1,10,4.1
	c2.8,1,5,1.7,6.5,2.1c0.8,0.2,1.4,0.3,1.8,0.4c0.4,0.1,0.6,0.1,0.6,0.1c0.9,0.2,1.5,1.2,1.3,2.1c-0.2,0.9-1.2,1.5-2.1,1.3
	c0,0-0.2,0-0.6-0.1c-0.4-0.1-1.1-0.2-1.9-0.4c-1.6-0.4-4-1.1-6.8-2.1c-2.9-1-6.3-2.3-10.3-4c-3.9-1.7-8.2-3.8-12.9-6.1
	c-9.3-4.8-19.8-10.8-30.8-17.8S314.4,45.4,303.4,37c-11.1-8.4-21.8-17.2-31.3-26.2c-1.2-1.1-2.4-2.3-3.6-3.4l-1.7-1.7l-0.1-0.1
	l-0.1-0.1l0.1,0.1c0.1,0.1,0.2,0.2,0.4,0.3c0.2,0.1,0.3,0.2,0.5,0.2c0.7,0.2,1,0.1,1.2,0h0.1c0,0-0.1,0.1-0.2,0.1
	c-0.4,0.3-0.9,0.7-1.3,1.2c-0.5,0.5-0.9,1-1.4,1.6c-0.9,1.1-1.8,2.3-2.7,3.4c-3.5,4.7-6.4,9.3-9.2,13.7s-5.1,8.4-7.3,12
	c-2.2,3.6-4,6.7-5.4,9.4c-1.5,2.6-2.6,4.7-3.3,6c-0.4,0.7-0.6,1.2-0.8,1.5c-0.1,0.1-0.1,0.2-0.1,0.3s-0.1,0.1-0.1,0.1
	c-0.7,1.7-2.7,2.6-4.4,1.9C230.8,57,229.9,55,230.6,53.2z"/>
</svg>
